<svg width="166" height="76" fill="none" xmlns="http://www.w3.org/2000/svg"><rect width="166" height="76" rx="15" transform="matrix(1 0 0 -1 0 76)" fill="#000"/><rect x=".5" y="-.5" width="165" height="75" rx="14.5" transform="matrix(1 0 0 -1 0 75)" stroke="#D9D9D9"/><rect x=".5" y="-.5" width="165" height="75" rx="14.5" transform="matrix(1 0 0 -1 0 75)" stroke="#D9D9D9"/><path fill-rule="evenodd" clip-rule="evenodd" d="M108.094 29.064h-2.4l.008 17.872h9.713v-2.2H108.1l-.006-15.672Zm16.57 14.734a4.097 4.097 0 0 1-2.974 1.255c-1.828 0-2.565-.9-2.565-2.074 0-1.773 1.228-2.62 3.847-2.62.5 0 1.282.055 1.692.136v3.303Zm-2.484-10.832a8 8 0 0 0-5.105 1.83l.85 1.47c.982-.573 2.183-1.146 3.902-1.146 1.965 0 2.838 1 2.838 2.7v.873c-.382-.082-1.173-.137-1.664-.137-4.202 0-6.33 1.473-6.33 4.557 0 2.756 1.692 4.147 4.256 4.147 1.728 0 3.383-.8 3.956-2.074l.437 1.746h1.692v-9.14c0-2.892-1.255-4.83-4.83-4.83l-.002.004Zm12.577 12.17c-.9 0-1.692-.1-2.292-.382v-8.267c.82-.682 1.828-1.173 3.1-1.173 2.32 0 3.22 1.637 3.22 4.284 0 3.765-1.446 5.54-4.038 5.54m1-12.17c-2.146 0-3.3 1.46-3.3 1.46V32.12l-.008-3.056h-2.346L130.1 46.5c1.173.5 2.783.764 4.53.764 4.475 0 6.63-2.865 6.63-7.803 0-3.902-1.992-6.494-5.512-6.494M81.993 31c2.128 0 3.492.7 4.393 1.42l1.032-1.787c-1.406-1.233-3.298-1.896-5.316-1.896-5.102 0-8.676 3.1-8.676 9.386 0 6.576 3.856 9.14 8.267 9.14 2.2 0 4.093-.518 5.32-1.037l-.05-7.026V37h-6.548v2.2H84.6l.05 5.334c-.546.273-1.5.5-2.783.5-3.547 0-5.92-2.23-5.92-6.93 0-4.775 2.456-7.094 6.057-7.094m16.876-1.946h-2.347l.008 3v10.368c0 2.892 1.255 4.83 4.83 4.83.485 0 .969-.043 1.446-.13v-2.107a7.194 7.194 0 0 1-1.091.082c-1.965 0-2.838-1-2.838-2.7v-7.15h3.93v-1.965h-3.93l-.008-4.228Zm-8.3 17.872h2.347V33.293H90.58v13.643Zm0-15.526h2.347v-2.347H90.58v2.347Z" fill="#fff"/><path fill-rule="evenodd" clip-rule="evenodd" d="m50.473 56.194 7.273-22.385H43.2l7.273 22.385Z" fill="#666"/><path fill-rule="evenodd" clip-rule="evenodd" d="M50.473 56.193 43.2 33.8H33.006l17.467 22.393Z" fill="#BBB"/><path fill-rule="evenodd" clip-rule="evenodd" d="m33.006 33.8-2.2 6.803c-.202.62.02 1.3.547 1.684l19.13 13.9L33.006 33.8Z" fill="#EBEBEB"/><path fill-rule="evenodd" clip-rule="evenodd" d="M33.006 33.8H43.2l-4.38-13.482c-.225-.694-1.207-.694-1.432 0L33.006 33.8Z" fill="#666"/><path fill-rule="evenodd" clip-rule="evenodd" d="m50.473 56.193 7.273-22.385H67.94L50.473 56.193Z" fill="#BBB"/><path fill-rule="evenodd" clip-rule="evenodd" d="m67.94 33.8 2.2 6.803c.202.62-.02 1.3-.547 1.684l-19.13 13.9L67.94 33.8Z" fill="#EBEBEB"/><path fill-rule="evenodd" clip-rule="evenodd" d="M67.94 33.8H57.746l4.38-13.482c.225-.694 1.207-.694 1.432 0L67.94 33.8Z" fill="#666"/></svg>