<svg width="166" height="76" fill="none" xmlns="http://www.w3.org/2000/svg"><rect width="166" height="76" rx="15" transform="matrix(1 0 0 -1 0 76)" fill="#000"/><rect x=".5" y="-.5" width="165" height="75" rx="14.5" transform="matrix(1 0 0 -1 0 75)" stroke="#D9D9D9"/><g clip-path="url(#a)"><path fill-rule="evenodd" clip-rule="evenodd" d="m103.027 16.543 1.286 1.7a1.026 1.026 0 0 1-.194 1.43l-1.365 1.042a8.03 8.03 0 0 1 .472 2.093l1.553.214c.556.075.944.593.869 1.151l-.288 2.118a1.016 1.016 0 0 1-1.147.872l-1.697-.234a7.947 7.947 0 0 1-1.147 1.814l.953 1.256a1.026 1.026 0 0 1-.198 1.43l-1.693 1.29a1.02 1.02 0 0 1-1.425-.193l-1.037-1.37a7.966 7.966 0 0 1-2.09.473l-.214 1.56a1.02 1.02 0 0 1-1.147.871l-2.11-.288a1.022 1.022 0 0 1-.868-1.152l.233-1.704a8.18 8.18 0 0 1-1.807-1.146l-1.25.951a1.016 1.016 0 0 1-1.425-.194l-1.286-1.7a1.025 1.025 0 0 1 .193-1.43l1.366-1.041a8.06 8.06 0 0 1-.472-2.093l-1.554-.215a1.018 1.018 0 0 1-.869-1.15l.288-2.119c.08-.558.591-.947 1.147-.872l1.698.234c.303-.657.69-1.27 1.142-1.814l-.949-1.255a1.02 1.02 0 0 1 .194-1.426l1.693-1.29a1.016 1.016 0 0 1 1.425.194l1.037 1.37a7.93 7.93 0 0 1 2.085-.473l.213-1.56a1.023 1.023 0 0 1 1.147-.877l2.11.289c.556.075.948.593.869 1.151l-.234 1.705a8.04 8.04 0 0 1 1.812 1.15l1.251-.951a1.018 1.018 0 0 1 1.43.19ZM66.729 46.45v-8.223h4.22c.784 0 1.38.065 1.791.204.413.135.75.384.998.748.254.368.383.812.383 1.335 0 .454-.1.852-.293 1.181a2.26 2.26 0 0 1-.8.808c-.213.13-.51.239-.888.324.303.104.521.199.655.304.094.07.228.214.402.433.174.22.293.394.353.513l1.23 2.378h-2.859l-1.35-2.507c-.174-.324-.322-.538-.457-.633a1.086 1.086 0 0 0-.62-.19h-.224v3.33h-2.54v-.005Zm8.925 14.317H70.93L70.249 63h-4.26l5.079-13.55h4.567L80.693 63h-4.368l-.67-2.233Zm-.883-2.935-1.475-4.874-1.479 4.874h2.954Zm6.905-8.382h6.94c1.514 0 2.646.358 3.395 1.081.75.723 1.127 1.754 1.127 3.085 0 1.37-.412 2.442-1.23 3.214-.82.773-2.076 1.157-3.759 1.157h-2.288V63h-4.185V49.45Zm4.185 5.79h1.027c.81 0 1.38-.139 1.708-.423.328-.28.492-.643.492-1.076 0-.424-.144-.788-.427-1.082-.283-.294-.82-.443-1.604-.443h-1.196v3.025Zm8.965-5.79h4.185V63h-4.185V49.45Zm-25.555-7.884h1.067c.114 0 .337-.04.67-.115a.665.665 0 0 0 .412-.259c.11-.14.159-.3.159-.478 0-.265-.084-.474-.253-.613-.17-.145-.482-.215-.944-.215H69.27v1.68Zm5.996-3.34h6.776v1.755H77.81v1.31h3.927v1.675H77.81v1.62h4.359v1.859h-6.9v-8.218Zm7.501 5.503 2.403-.15c.05.394.159.688.317.892.264.33.636.498 1.118.498.357 0 .64-.084.834-.254.193-.17.292-.368.292-.593 0-.214-.094-.403-.278-.573-.183-.17-.615-.324-1.295-.478-1.107-.25-1.897-.583-2.373-.997-.477-.414-.715-.942-.715-1.585 0-.423.124-.822.367-1.196.244-.373.61-.673 1.102-.887.492-.214 1.162-.319 2.016-.319 1.047 0 1.841.195 2.393.588.546.394.873 1.012.978 1.87l-2.378.144c-.065-.374-.199-.648-.398-.813-.203-.17-.486-.254-.838-.254-.293 0-.517.065-.666.19a.579.579 0 0 0-.223.458c0 .13.064.244.184.354.119.104.397.21.844.304 1.107.239 1.9.483 2.377.727.477.245.83.549 1.043.912a2.3 2.3 0 0 1 .328 1.216 2.58 2.58 0 0 1-.437 1.456 2.716 2.716 0 0 1-1.217 1.011c-.52.23-1.176.344-1.97.344-1.39 0-2.358-.269-2.894-.807-.537-.548-.84-1.231-.914-2.058Zm7.799-5.502h7.7v2.033h-2.582v6.19h-2.532v-6.19h-2.586v-2.033ZM82.048 18.71c-.908-.07-1.826-.06-2.735.03-2.795.27-5.51 1.29-7.754 3.04-2.596 2.018-4.567 5.038-5.327 9.04l-.238 1.251-1.24.22c-1.217.214-2.304.508-3.257.881-.924.36-1.748.803-2.468 1.326a8.196 8.196 0 0 0-1.494 1.395c-1.305 1.57-1.911 3.539-1.896 5.532a10.03 10.03 0 0 0 1.881 5.746 9.37 9.37 0 0 0 1.569 1.695 7.866 7.866 0 0 0 2.05 1.236c.432.179.894.328 1.375.448v3.733a13.389 13.389 0 0 1-2.76-.803 11.492 11.492 0 0 1-3.003-1.809 12.847 12.847 0 0 1-2.184-2.352A13.741 13.741 0 0 1 52 41.436c-.02-2.82.854-5.626 2.74-7.899.61-.737 1.33-1.415 2.155-2.013.958-.698 2.055-1.286 3.296-1.77a19.877 19.877 0 0 1 2.73-.837c1.092-4.355 3.42-7.71 6.414-10.036 2.8-2.178 6.17-3.449 9.64-3.783a19.595 19.595 0 0 1 5.476.244 4.21 4.21 0 0 0-.094.499l-.005.03c-.035.284-.05.568-.035.857-.382.15-.74.353-1.062.603l-.015.01a4.456 4.456 0 0 0-1.192 1.37Zm26.266 9.569c.278.254.546.518.809.802a14.506 14.506 0 0 1 1.504 1.944c1.589 2.451 2.403 5.726 2.368 8.93-.035 3.145-.879 6.274-2.606 8.577-1.127 1.5-2.572 2.726-4.304 3.697-1.186.668-2.522 1.222-3.976 1.67v-3.862a16.058 16.058 0 0 0 2.184-.997c1.305-.732 2.373-1.625 3.172-2.696 1.241-1.66 1.852-4.007 1.876-6.414.03-2.526-.585-5.063-1.782-6.907a10.235 10.235 0 0 0-1.583-1.909c.025-.249.035-.503.02-.757.382-.15.739-.354 1.062-.603l.015-.01a4.526 4.526 0 0 0 1.241-1.465Zm-12.59-8.901c2.29.314 3.888 2.432 3.575 4.73a4.187 4.187 0 0 1-4.711 3.592 4.19 4.19 0 0 1-3.574-4.729c.317-2.297 2.422-3.907 4.71-3.593Z" fill="#fff"/></g><defs><clipPath id="a"><path fill="#fff" transform="translate(52 13)" d="M0 0h61v50H0z"/></clipPath></defs></svg>