<svg width="166" height="76" fill="none" xmlns="http://www.w3.org/2000/svg"><rect width="166" height="76" rx="15" transform="matrix(1 0 0 -1 0 76)" fill="#000"/><rect x=".5" y="-.5" width="165" height="75" rx="14.5" transform="matrix(1 0 0 -1 0 75)" stroke="#D9D9D9"/><g clip-path="url(#a)"><path d="M46.165 50.007a2.538 2.538 0 0 1-1.812-.761L29.196 33.86v13.548c0 1.436-1.147 2.6-2.562 2.6-1.414 0-2.561-1.164-2.561-2.6V27.584c0-1.052.625-2 1.582-2.402a2.522 2.522 0 0 1 1.48-.148c.496.1.953.348 1.31.712l15.16 15.384V27.584c0-1.436 1.146-2.6 2.561-2.6s2.562 1.164 2.562 2.6v19.824c0 .689-.27 1.35-.751 1.837a2.544 2.544 0 0 1-1.811.762ZM58.026 25.01l-.704 1.334-5.443 10.04-.704 1.268.704 1.266 5.444 9.717.735 1.332h14.249l.703-1.462 4.067-8.32 1.825-3.769h-4.13l-10.406.032c-1.353-.018-2.598 1.226-2.598 2.6s1.245 2.62 2.598 2.6l6.276-.032-1.537 3.151h-8.069l-4.003-7.149 4.035-7.409h8.583l2 4.168h5.156l-3.25-7.903-.704-1.464H58.027m25.948-.032c-1.342.017-2.547 1.27-2.53 2.632v6.775h5.124V27.61c.016-1.383-1.232-2.65-2.594-2.632Zm8.211 25.08c-.679 0-1.33-.274-1.81-.762a2.62 2.62 0 0 1-.75-1.837V27.634c0-1.436 1.146-2.6 2.561-2.6s2.562 1.164 2.562 2.6v13.547l15.158-15.386a2.525 2.525 0 0 1 2.791-.564c.468.198.868.53 1.149.958.282.428.432.93.432 1.445v19.824c0 1.435-1.147 2.599-2.562 2.599-1.415 0-2.561-1.164-2.561-2.6V33.91L93.997 49.296a2.525 2.525 0 0 1-1.811.761m41.066-12.531 7.968-8.058a2.628 2.628 0 0 0 .006-3.677 2.534 2.534 0 0 0-3.621-.006l-7.981 8.071-7.98-8.071a2.534 2.534 0 0 0-3.622.006 2.629 2.629 0 0 0 .005 3.677l7.968 8.058-7.944 8.035a2.625 2.625 0 0 0-.006 3.676 2.52 2.52 0 0 0 1.814.765 2.53 2.53 0 0 0 1.808-.76l7.957-8.046 7.957 8.047a2.55 2.55 0 0 0 1.808.759c.658 0 1.314-.255 1.815-.765a2.627 2.627 0 0 0-.006-3.676l-7.946-8.035ZM83.975 49.983c-1.342-.016-2.547-1.27-2.53-2.631V36.469h5.124v10.883c.016 1.381-1.232 2.648-2.594 2.631Z" fill="#fff"/></g><defs><clipPath id="a"><path fill="#fff" transform="translate(24 25)" d="M0 0h118v25H0z"/></clipPath></defs></svg>