<svg width="166" height="76" fill="none" xmlns="http://www.w3.org/2000/svg"><rect width="166" height="76" rx="15" transform="matrix(-1 0 0 1 166 0)" fill="#000"/><rect x="-.5" y=".5" width="165" height="75" rx="14.5" transform="matrix(-1 0 0 1 165 0)" stroke="#D9D9D9"/><g clip-path="url(#a)"><path d="M91.737 32.217a6.3 6.3 0 0 1 1.826.268c.572.197.877.448.877.752a.773.773 0 0 1-.162.465.462.462 0 0 1-.393.25 5.586 5.586 0 0 1-.698-.268 3.256 3.256 0 0 0-1.432-.286 2.768 2.768 0 0 0-1.504.376 1.346 1.346 0 0 0-.573 1.217c-.018.448.161.877.501 1.164.376.304.806.554 1.271.698a17.86 17.86 0 0 1 1.504.608c.501.25.93.627 1.253 1.092a3.43 3.43 0 0 1 .519 1.915c0 1.056-.304 1.862-.93 2.4a3.482 3.482 0 0 1-2.453.804 4.513 4.513 0 0 1-2.31-.572c-.644-.43-.966-.806-.966-1.182a.8.8 0 0 1 .18-.483.53.53 0 0 1 .375-.233c.143.018.269.09.358.197.143.126.286.269.448.43.214.197.465.34.734.43.357.143.751.196 1.127.196a2.359 2.359 0 0 0 1.575-.483 1.79 1.79 0 0 0 .573-1.432 1.873 1.873 0 0 0-.519-1.378 3.498 3.498 0 0 0-1.27-.806 32.488 32.488 0 0 1-1.504-.59 3.216 3.216 0 0 1-1.271-.967 2.579 2.579 0 0 1-.52-1.683c-.017-.483.09-.966.305-1.414.179-.376.465-.68.823-.895a4.7 4.7 0 0 1 1.074-.447 5.33 5.33 0 0 1 1.182-.143Zm-9.165.84c.608.538.913 1.397.913 2.543v4.636c0 1.163-.305 2.005-.913 2.542a3.975 3.975 0 0 1-4.833 0c-.59-.538-.895-1.379-.895-2.542V35.6c0-1.164.304-2.005.895-2.542a4.028 4.028 0 0 1 4.833 0Zm44.231-.805c.429 0 .698.144.787.448l3.169 10.203v.09a.435.435 0 0 1-.251.375.888.888 0 0 1-.573.143.446.446 0 0 1-.465-.286l-.68-2.255h-4.046l-.68 2.255c-.054.197-.268.322-.465.304a.932.932 0 0 1-.519-.16.41.41 0 0 1-.251-.395.33.33 0 0 1 .036-.125l3.15-10.15c.09-.303.358-.447.788-.447Zm-15.967 0c.412 0 .752.269 1.038.824l2.417 4.636 2.434-4.636c.304-.537.644-.824 1.038-.824a.564.564 0 0 1 .645.466.247.247 0 0 1 0 .16v10.15a.384.384 0 0 1-.197.34.923.923 0 0 1-.913 0 .384.384 0 0 1-.197-.34v-8.073l-2.327 4.368a.538.538 0 0 1-.501.376.56.56 0 0 1-.484-.376l-2.327-4.457v8.162a.384.384 0 0 1-.196.34.775.775 0 0 1-.43.143.772.772 0 0 1-.448-.125.327.327 0 0 1-.214-.34v-10.15a.564.564 0 0 1 .465-.644.366.366 0 0 1 .197 0Zm25.024-.018c.197 0 .394.072.555.197.179.18.34.394.43.627l3.848 7.518v-7.894c0-.143.072-.269.197-.322a.923.923 0 0 1 .913 0 .378.378 0 0 1 .197.322v10.364a.384.384 0 0 1-.197.34.807.807 0 0 1-.448.125.91.91 0 0 1-.805-.59l-4.045-7.75v7.875a.408.408 0 0 1-.179.34.923.923 0 0 1-.913 0 .382.382 0 0 1-.197-.34V32.682c0-.304.215-.448.644-.448Zm-69.72 0h2.917a3.501 3.501 0 0 1 2.381.806c.59.537.895 1.378.895 2.524v.143c0 1.146-.304 2.005-.913 2.542-.68.555-1.54.859-2.416.805h-2.077v3.992a.384.384 0 0 1-.197.34.923.923 0 0 1-.913 0 .384.384 0 0 1-.196-.34V32.682c0-.125.053-.233.143-.322a.483.483 0 0 1 .376-.126Zm39.165 0c.143 0 .268.054.34.18a.61.61 0 0 1 .125.393.755.755 0 0 1-.125.43c-.072.125-.197.179-.34.179h-2.452v9.63a.384.384 0 0 1-.197.34.923.923 0 0 1-.913 0 .382.382 0 0 1-.197-.34v-9.63h-2.488c-.143 0-.269-.054-.34-.18a.728.728 0 0 1-.144-.429.61.61 0 0 1 .126-.394c.071-.125.197-.178.34-.178h6.265Zm-25.132 1.164c-1.342 0-2.005.716-2.005 2.184l-.017 4.654c0 1.45.662 2.184 2.022 2.184a2.032 2.032 0 0 0 1.504-.537c.394-.448.573-1.039.537-1.647v-4.654a2.24 2.24 0 0 0-.537-1.647 2.031 2.031 0 0 0-1.504-.537Zm46.63.734-1.737 5.764h3.455l-1.718-5.764Zm-57.8-.716h-2.076l-.018 4.564h2.095a1.952 1.952 0 0 0 1.503-.554 2.193 2.193 0 0 0 .537-1.647v-.18a2.24 2.24 0 0 0-.537-1.646 2.031 2.031 0 0 0-1.503-.537ZM59.66 40.2c1.253-9.81-5.674-18.777-15.466-20.03-9.79-1.253-18.795 5.674-20.048 15.465-1.253 9.792 5.675 18.778 15.466 20.049 9.81 1.253 18.777-5.675 20.048-15.484Z" fill="#fff"/><path d="m48.365 31.518-7.554 7.554-2.13-2.13c7.429-7.428 8.163-6.784 9.684-5.424Z" fill="#878787"/><path d="M40.811 39.251a.163.163 0 0 1-.125-.053l-2.148-2.13a.173.173 0 0 1 0-.251c7.554-7.554 8.342-6.838 9.935-5.406a.163.163 0 0 1 .053.125c0 .054-.018.09-.053.126l-7.554 7.535c-.018.036-.072.054-.108.054Zm-1.88-2.309 1.88 1.88 7.286-7.286c-1.325-1.181-2.22-1.54-9.165 5.406Z" fill="#fff"/><path d="M42.977 41.238 40.92 39.18l7.553-7.554c2.023 2.04-1.002 5.352-5.495 9.612Z" fill="#878787"/><path d="M42.977 41.417a.163.163 0 0 1-.125-.054l-2.059-2.058c-.035-.036-.035-.072-.035-.125 0-.054.017-.09.053-.126l7.554-7.554a.173.173 0 0 1 .25 0 2.18 2.18 0 0 1 .699 1.665c-.036 1.987-2.291 4.511-6.194 8.198a.286.286 0 0 1-.143.054ZM41.17 39.18c1.146 1.163 1.63 1.629 1.808 1.807 3.007-2.864 5.925-5.8 5.943-7.822a1.907 1.907 0 0 0-.465-1.289L41.17 39.18Z" fill="#fff"/><path d="m38.717 36.996 1.522 1.521c.035.036.035.072 0 .108-.018.018-.018.018-.036.018l-3.15.68a.313.313 0 0 1-.34-.25.265.265 0 0 1 .07-.233l1.827-1.826c.035-.036.09-.054.107-.018Z" fill="#878787"/><path d="M36.999 39.502a.466.466 0 0 1-.466-.483c0-.126.054-.251.143-.34l1.826-1.826c.108-.09.25-.09.358 0l1.522 1.521c.107.09.107.25 0 .358a.289.289 0 0 1-.126.072l-3.15.68c-.036 0-.072.018-.107.018Zm1.664-2.31-1.754 1.755c-.036.036-.054.09-.018.143.018.054.072.072.126.054l2.953-.645-1.307-1.306Z" fill="#fff"/><path d="M52.357 27.33a2.891 2.891 0 0 0-4.1.09 2.89 2.89 0 0 0 .09 4.098 2.892 2.892 0 0 0 3.508.394l-2.04-2.04 2.542-2.542Z" fill="#878787"/><path d="M50.352 32.503a3.079 3.079 0 1 1 2.13-5.299.163.163 0 0 1 .054.126.16.16 0 0 1-.054.125l-2.416 2.417 1.897 1.897a.173.173 0 0 1 0 .25l-.036.036a3.036 3.036 0 0 1-1.575.448Zm0-5.782a2.693 2.693 0 0 0-2.703 2.721 2.693 2.693 0 0 0 2.72 2.703c.413 0 .824-.09 1.2-.287l-1.88-1.861a.163.163 0 0 1-.053-.125c0-.054.018-.09.054-.126l2.398-2.398a2.653 2.653 0 0 0-1.736-.627Z" fill="#fff"/><path d="m52.41 27.384-.035-.036-2.56 2.524 2.023 2.022c.197-.125.393-.268.554-.43a2.869 2.869 0 0 0 .018-4.08Z" fill="#878787"/><path d="M51.856 32.091a.163.163 0 0 1-.126-.053l-2.04-2.041a.163.163 0 0 1-.054-.125c0-.054.018-.09.054-.126l2.541-2.541a.173.173 0 0 1 .251 0l.054.035c1.2 1.2 1.2 3.133.018 4.35-.18.18-.376.34-.591.466-.054.017-.09.035-.107.035Zm-1.79-2.22 1.807 1.809a2.32 2.32 0 0 0 .394-.323 2.726 2.726 0 0 0 .09-3.759l-2.291 2.274Z" fill="#fff"/><path d="M48.67 31.84a1.102 1.102 0 0 0-1.558 0l-6.748 6.749 1.128 1.128 7.142-6.265c.465-.394.5-1.092.107-1.558a.248.248 0 0 1-.072-.053Z" fill="#878787"/><path d="M41.474 39.896a.163.163 0 0 1-.126-.054l-1.127-1.128a.173.173 0 0 1 0-.25l6.748-6.749a1.275 1.275 0 0 1 1.808 0 1.275 1.275 0 0 1-.054 1.862l-7.142 6.265c-.018.036-.054.054-.107.054Zm-.86-1.307.878.877 7.016-6.157c.394-.323.43-.913.108-1.307-.322-.394-.913-.43-1.307-.108a.247.247 0 0 1-.072.054l-6.623 6.641Z" fill="#fff"/><path d="M35.19 46.268c-.07.036-.107.107-.089.179l.305 1.289a.342.342 0 0 1-.233.447.36.36 0 0 1-.394-.107l-1.969-1.951 6.426-6.426 2.22.035 1.503 1.504c-.358.304-2.524 2.399-7.768 5.03Z" fill="#878787"/><path d="M35.047 48.362a.488.488 0 0 1-.375-.16L32.72 46.25a.163.163 0 0 1-.053-.125c0-.054.018-.09.053-.125l6.427-6.426a.193.193 0 0 1 .125-.054l2.22.036c.053 0 .089.018.125.053l1.503 1.504c.036.036.054.09.054.143 0 .054-.018.09-.072.125l-.125.108c-1.897 1.665-4.475 3.33-7.679 4.922l.304 1.271a.564.564 0 0 1-.268.609.614.614 0 0 1-.287.071Zm-1.969-2.237 1.844 1.826c.054.09.161.125.25.071.09-.053.126-.16.072-.25l-.304-1.29a.326.326 0 0 1 .179-.375c3.168-1.593 5.728-3.24 7.608-4.869l-1.325-1.324-2.059-.036-6.265 6.247Z" fill="#fff"/><path d="m31.289 47.664 1.539-1.54 2.291 2.292-3.651-.25a.285.285 0 0 1-.251-.323c0-.071.018-.143.072-.179Z" fill="#878787"/><path d="m35.12 48.577-3.67-.25c-.269-.018-.448-.251-.43-.52a.445.445 0 0 1 .143-.286l1.54-1.54a.173.173 0 0 1 .25 0l2.291 2.292c.054.054.072.125.036.197-.036.071-.09.107-.16.107Zm-2.292-2.201-1.414 1.414c-.054.035-.054.125 0 .16.018.019.036.036.071.036l3.169.215-1.826-1.825Zm5.782-5.854a.18.18 0 0 1-.18-.179c0-.054.019-.09.054-.125l1.737-1.736a.173.173 0 0 1 .25 0l1.128 1.127c.054.054.072.108.054.18a.205.205 0 0 1-.143.125l-2.864.608h-.036Zm1.736-1.664-1.181 1.18 1.933-.41-.752-.77Z" fill="#fff"/><path d="m41.456 39.735-1.97.43a.267.267 0 0 1-.25-.448l1.092-1.092 1.128 1.11Z" fill="#878787"/><path d="M39.45 40.343a.443.443 0 0 1-.447-.447.51.51 0 0 1 .126-.322l1.092-1.092a.173.173 0 0 1 .25 0l1.128 1.127c.054.054.072.108.054.18a.205.205 0 0 1-.144.125l-1.969.43h-.09Zm.896-1.486-.967.967c-.035.036-.035.072-.018.108.018.035.054.053.108.053l1.647-.358-.77-.77Zm12.082-9.755c-.035-.108-.16-.161-.268-.125-.107.035-.161.16-.125.268 0 .018.018.036.018.054a.668.668 0 0 1-.072.68.217.217 0 0 0 .018.286c.09.072.215.054.286-.035.269-.34.322-.77.143-1.128Z" fill="#fff"/></g><defs><clipPath id="a"><path fill="#fff" transform="translate(24 20)" d="M0 0h118v36H0z"/></clipPath></defs></svg>