<svg width="166" height="76" fill="none" xmlns="http://www.w3.org/2000/svg"><rect width="166" height="76" rx="15" transform="matrix(1 0 0 -1 0 76)" fill="#000"/><rect x=".5" y="-.5" width="165" height="75" rx="14.5" transform="matrix(1 0 0 -1 0 75)" stroke="#D9D9D9"/><g clip-path="url(#a)"><path d="M27.233 47.144c-1.168 0-2.229-.959-2.229-2.13 0-1.171.955-2.13 2.229-2.13 1.273 0 2.228.959 2.228 2.13 0 1.171-1.061 2.13-2.228 2.13Zm27.38-11.606c-.213-1.704-1.274-3.088-2.654-4.153l-.53-.426-.425.533c-.849.958-1.167 2.662-1.061 3.94.106.958.424 1.916.955 2.661-.425.213-.955.426-1.38.64-.955.319-1.91.425-2.865.425H19.167l-.106.639a12.017 12.017 0 0 0 .955 6.07l.425.744v.107c2.547 4.259 7.11 6.176 12.098 6.176 9.55 0 17.404-4.153 21.118-13.097 2.441.106 4.882-.532 6.05-2.875l.318-.532-.531-.32c-1.38-.852-3.29-.958-4.882-.532Zm-13.69-1.704h-4.14v4.153h4.14v-4.153Zm0-5.217h-4.14v4.152h4.14v-4.152Zm0-5.324h-4.14v4.152h4.14v-4.152Zm5.093 10.541h-4.138v4.153h4.138v-4.153Zm-15.387 0h-4.14v4.153h4.14v-4.153Zm5.2 0h-4.14v4.153h4.14v-4.153Zm-10.294 0h-4.14v4.153h4.14v-4.153Zm10.294-5.217h-4.14v4.152h4.14v-4.152Zm-5.2 0h-4.14v4.152h4.14v-4.152Z" fill="#fff"/><mask id="b" style="mask-type:luminance" maskUnits="userSpaceOnUse" x="18" y="23" width="43" height="30"><path d="M27.233 47.144c-1.168 0-2.229-.959-2.229-2.13 0-1.171.955-2.13 2.229-2.13 1.273 0 2.228.959 2.228 2.13 0 1.171-1.061 2.13-2.228 2.13Zm27.38-11.606c-.213-1.704-1.274-3.088-2.654-4.153l-.53-.426-.425.533c-.849.958-1.167 2.662-1.061 3.94.106.958.424 1.916.955 2.661-.425.213-.955.426-1.38.64-.955.319-1.91.425-2.865.425H19.167l-.106.639a12.017 12.017 0 0 0 .955 6.07l.425.744v.107c2.547 4.259 7.11 6.176 12.098 6.176 9.55 0 17.404-4.153 21.118-13.097 2.441.106 4.882-.532 6.05-2.875l.318-.532-.531-.32c-1.38-.852-3.29-.958-4.882-.532Zm-13.69-1.704h-4.14v4.153h4.14v-4.153Zm0-5.217h-4.14v4.152h4.14v-4.152Zm0-5.324h-4.14v4.152h4.14v-4.152Zm5.093 10.541h-4.138v4.153h4.138v-4.153Zm-15.387 0h-4.14v4.153h4.14v-4.153Zm5.2 0h-4.14v4.153h4.14v-4.153Zm-10.294 0h-4.14v4.153h4.14v-4.153Zm10.294-5.217h-4.14v4.152h4.14v-4.152Zm-5.2 0h-4.14v4.152h4.14v-4.152Z" fill="#fff"/></mask><g mask="url(#b)"><path d="M-33.788-.771H1319.06v161.207H-33.788V-.771Z" fill="#fff"/></g><path d="M126.139 44.588c1.804-1.597 3.608-3.088 5.412-4.685.637-.532 1.273-1.064 1.91-1.703-.53-.64-1.273-1.065-2.016-1.385-1.38-.532-2.759-.319-4.139.426-1.698.959-2.441 2.556-2.335 4.472 0 .746.213 1.491.637 2.13.318.32.425.532.531.745Zm2.122 1.49c.849.32 1.91.32 2.865.107.425-.213 1.698-.745 2.123-.638h.212a.956.956 0 0 1 .637.638c.318.64.212 1.278-.425 1.598l-.212.106c-2.335 1.384-4.775 1.171-7.11-.106a7.333 7.333 0 0 1-2.547-2.556l-.106-.213c-1.486-2.555-1.274-5.324.424-7.773.531-.852 1.38-1.49 2.229-2.023l.318-.213c2.229-1.277 4.564-1.171 6.792-.106 1.168.639 2.229 1.49 2.865 2.662l.107.213c.53.852-.107 1.597-.849 2.13l-2.229 1.916c-1.91 1.49-3.502 2.875-5.094 4.259Zm17.298-11.712h.212c.743 0 1.274.533 1.274 1.278 0 1.065-.955 1.278-1.804 1.278-1.061 0-2.123.639-2.866 1.384-.955.958-1.379 2.13-1.379 3.407v5.963c0 .639-.425 1.278-1.168 1.278h-.212c-.743 0-1.167-.533-1.167-1.278v-6.282c0-2.449 1.167-4.366 3.077-5.75 1.38-.852 2.654-1.278 4.033-1.278Zm-30.351 4.153 2.865-2.875c.319-.213 1.274-1.384 1.698-1.384h.425c.53.106.955.426.955 1.065v.213c0 .426-.531.852-.743 1.17-.531.64-1.167 1.172-1.698 1.811l-2.971 2.981 3.82 3.834 1.061 1.064.425.426c.106.213.212.32.212.533v.32c-.106.532-.531.957-1.061.957h-.212c-.425 0-.849-.425-1.168-.745-.53-.532-1.167-1.065-1.698-1.704l-1.91-1.81v2.982c0 .639-.424 1.277-1.167 1.277h-.212c-.743 0-1.168-.532-1.168-1.277V30.959c0-.639.425-1.171 1.168-1.171h.212c.743 0 1.167.532 1.167 1.171v7.56Zm-7.853-1.597c-.318-.213-1.061-.213-1.486-.213-2.016-.107-3.502 1.065-4.351 2.875-.318.639-.424 1.278-.424 2.023 0 2.13 1.061 3.62 2.971 4.472.637.32 1.592.426 2.335.426.637 0 1.592-.426 2.122-.639h.531c.531.106.955.426.955 1.065v.213c0 1.49-2.759 1.81-3.714 1.916-3.608.213-6.367-1.81-7.429-5.217-.212-.639-.212-1.171-.212-1.81V41.5c0-2.661 1.273-4.791 3.608-6.069a6.663 6.663 0 0 1 3.502-.958h.531c1.273 0 2.547.32 3.608 1.065l.106.106.106.107c.106.213.212.425.212.639v.212c0 .64-.424.959-1.061 1.065h-.106c-.743-.213-1.592-.639-1.804-.745ZM85.069 41.5c0 1.81.955 3.195 2.441 4.153a4.917 4.917 0 0 0 2.44.639c1.805 0 3.185-.958 4.14-2.45a4.959 4.959 0 0 0 .636-2.448c0-1.704-.849-3.088-2.228-4.046-.743-.533-1.698-.745-2.547-.745-2.016 0-3.502 1.064-4.351 2.874-.53.746-.53 1.385-.53 2.023Zm4.457-7.24h.319c2.865 0 4.988 1.384 6.367 3.833.53.958.85 2.023.85 3.194v.533c0 2.662-1.274 4.791-3.609 6.07a6.663 6.663 0 0 1-3.502.957h-.53c-2.654 0-4.776-1.277-6.05-3.62a6.718 6.718 0 0 1-.955-3.514v-.532c0-2.662 1.274-4.791 3.608-6.07 1.168-.532 2.229-.851 3.502-.851ZM68.94 41.5c0 1.917.955 3.408 2.653 4.26a4.92 4.92 0 0 0 2.228.532c1.91 0 3.29-.852 4.245-2.45a4.959 4.959 0 0 0 .637-2.448c0-1.704-.743-2.981-2.123-3.94-.848-.532-1.697-.852-2.759-.852-2.016 0-3.502 1.065-4.35 2.875-.32.746-.531 1.385-.531 2.023Zm9.763-5.43v-5.217c0-.64.424-1.278 1.167-1.278h.213c.742 0 1.167.532 1.167 1.278V41.82c0 2.662-1.274 4.791-3.608 6.07a6.663 6.663 0 0 1-3.502.957h-.53c-2.654 0-4.776-1.277-6.05-3.62a6.719 6.719 0 0 1-.955-3.514v-.532c0-2.662 1.273-4.791 3.608-6.07a6.662 6.662 0 0 1 3.502-.957h.53a7.312 7.312 0 0 1 4.458 1.916Z" fill="#fff"/></g><defs><clipPath id="a"><path fill="#fff" transform="translate(18 23)" d="M0 0h130v30H0z"/></clipPath></defs></svg>