<svg width="166" height="76" fill="none" xmlns="http://www.w3.org/2000/svg"><rect width="166" height="76" rx="15" transform="matrix(1 0 0 -1 0 76)" fill="#000"/><rect x=".5" y="-.5" width="165" height="75" rx="14.5" transform="matrix(1 0 0 -1 0 75)" stroke="#D9D9D9"/><path d="M49.74 37.587h-5.222v-5.252h5.505c2.015 0 3.023.89 3.023 2.667 0 1.724-1.103 2.586-3.306 2.586m3.753-5.314c-.72-.64-1.717-.961-3.004-.961l-7.478.041v12.564h1.507l-.014-5.348h5.565c1.395 0 2.494-.32 3.295-.962.802-.64 1.203-1.53 1.203-2.667 0-1.137-.358-2.026-1.074-2.667Zm9.752 9.006c-.144.411-.39.779-.715 1.069-.675.659-1.705.988-3.09.988-1.25 0-2.21-.316-2.88-.96-.67-.646-1.005-1.498-1.005-2.572 0-.559.088-1.055.263-1.488.175-.433.43-.798.763-1.096.692-.631 1.646-.947 2.86-.947 2.689 0 4.034 1.177 4.034 3.531 0 .56-.077 1.051-.225 1.475m.273-4.635c-.918-.837-2.277-1.26-4.078-1.26-1.7 0-3.016.428-3.943 1.282-.837.774-1.26 1.819-1.26 3.133 0 1.305.432 2.358 1.296 3.16a4.332 4.332 0 0 0 1.668.938c.635.194 1.38.29 2.235.29 1.79 0 3.15-.414 4.091-1.242.837-.756 1.26-1.8 1.26-3.146 0-1.35-.423-2.403-1.269-3.16v.005Zm11.393 4.998c0 1.691-1.515 2.537-4.545 2.537-.926 0-1.706-.059-2.34-.177-.633-.117-1.149-.312-1.544-.584a2.258 2.258 0 0 1-.729-.81c-.18-.333-.297-.751-.35-1.26l1.41-.013c0 .666.246 1.155.74 1.47.529.378 1.466.567 2.813.567 2.118 0 3.177-.53 3.177-1.592 0-.62-.36-1.047-1.065-1.282-.144-.045-1-.164-2.565-.358-1.565-.192-2.547-.366-2.934-.52-.836-.332-1.254-.93-1.254-1.794 0-.846.374-1.476 1.125-1.889.37-.17.83-.303 1.385-.398a11.514 11.514 0 0 1 1.924-.142c2.917 0 4.375.915 4.375 2.745H73.2c0-1.287-1.027-1.935-3.077-1.935-1.043 0-1.82.135-2.333.392-.513.256-.769.661-.769 1.201 0 .504.347.869 1.039 1.094.405.117 1.335.252 2.792.405 1.305.117 2.2.283 2.685.495.927.36 1.39.972 1.39 1.834l-.01.014Zm5.538 2.292-.574.081-.358.027c-.918 0-1.575-.133-1.985-.4-.411-.266-.61-.731-.61-1.394v-5.74H75.26v-.843h1.66l.013-2.71h1.285v2.71h2.238v.857l-2.238-.014v5.579c0 .415.11.702.33.855.221.153.614.236 1.181.236a.96.96 0 0 0 .27-.009c.15-.026.3-.06.446-.101l.013.855-.004.011Zm8.89-1.904c-.351.288-.75.508-1.2.662-.45.154-.967.225-1.551.225-2.689 0-4.032-1.11-4.032-3.33 0-1.034.344-1.843 1.032-2.427.688-.585 1.656-.877 2.906-.877 1.258 0 2.214.295 2.865.883.652.59.978 1.378.978 2.367 0 1.08-.333 1.91-.998 2.495m2.284-6.36h-1.285l-.014 1.417c-.567-.576-.972-.94-1.215-1.093-.72-.396-1.65-.593-2.793-.593-1.673 0-2.951.383-3.832 1.147-.837.702-1.255 1.718-1.255 3.048 0 .657.106 1.243.318 1.755.211.512.52.956.925 1.315.883.737 2.13 1.106 3.744 1.106 1.937 0 3.31-.53 4.122-1.59v1.468c0 .936-.295 1.66-.884 2.172-.589.513-1.558.765-2.908.765-1.269 0-2.172-.18-2.712-.523-.405-.269-.684-.735-.837-1.398H81.68c.144.926.54 1.596 1.17 2.009.738.476 1.98.714 3.735.714 3.357 0 5.04-1.248 5.04-3.744v-7.972l.004-.004Zm6.952.833a6.702 6.702 0 0 0-1.078-.09c-2.113 0-3.169 1.159-3.169 3.475v4.03h-1.271l-.014-8.245 1.286.012v1.472h.067c.216-.58.558-1.02 1.025-1.319.512-.29 1.276-.434 2.293-.434h.862v1.107-.008Zm1.196 2.771c.162-.937.527-1.662 1.092-2.176a3.84 3.84 0 0 1 1.255-.67 5.2 5.2 0 0 1 1.578-.222c1.142 0 2.07.313 2.799.94.729.625 1.086 1.336 1.086 2.128h-7.81Zm7.935-2.544a4.126 4.126 0 0 0-1.674-1.002c-.666-.216-1.44-.324-2.34-.324-1.665 0-2.957.387-3.876 1.16-.918.775-1.376 1.828-1.376 3.16 0 1.333.44 2.386 1.323 3.173.953.864 2.294 1.296 4.035 1.296a7.5 7.5 0 0 0 1.923-.235 5.302 5.302 0 0 0 1.545-.666c.774-.556 1.264-1.242 1.472-2.057h-1.39c-.477 1.41-1.664 2.115-3.561 2.115-1.34 0-2.37-.345-3.089-1.034-.621-.59-.931-1.356-.931-2.297h9.163c0-1.398-.405-2.495-1.228-3.285l.004-.004Z" fill="#fff"/><path d="M122.519 40.55c0 2.447-1.974 3.671-5.923 3.671-2.366 0-4.093-.421-5.181-1.26-.891-.693-1.335-1.75-1.335-3.171h1.589c0 2.285 1.642 3.427 4.927 3.427 1.575 0 2.713-.234 3.42-.7.594-.414.891-1.062.891-1.942 0-.872-.405-1.483-1.215-1.834-.459-.19-1.575-.428-3.362-.715-2.241-.342-3.694-.683-4.36-1.025-.963-.504-1.44-1.357-1.44-2.562 0-1.123.405-1.96 1.229-2.508.882-.602 2.394-.904 4.535-.904 3.87 0 5.805 1.285 5.805 3.856h-1.603c0-1.926-1.437-2.888-4.31-2.888-1.442 0-2.496.193-3.162.585-.631.414-.945 1.021-.945 1.822 0 .837.405 1.427 1.215 1.769.432.198 1.701.472 3.807.823 1.98.297 3.316.644 4.005 1.035.945.486 1.417 1.328 1.417 2.52h-.004Zm12.915 1.248a6.204 6.204 0 0 1-2.013 1.071c-.747.239-1.585.357-2.513.357-1.892 0-3.42-.51-4.587-1.529-1.167-1.02-1.749-2.378-1.749-4.076 0-1.769.578-3.148 1.735-4.136 1.158-.988 2.691-1.482 4.601-1.482 1.936 0 3.459.517 4.566 1.55a4.683 4.683 0 0 1 1.297 1.765c.28.674.419 1.442.419 2.304 0 1.76-.586 3.153-1.757 4.176m.845.833c.828-.584 1.441-1.291 1.837-2.123.397-.831.595-1.79.595-2.879 0-1.95-.648-3.51-1.944-4.692-.693-.648-1.53-1.129-2.511-1.443-.981-.315-2.101-.473-3.361-.473-2.448 0-4.365.594-5.76 1.78-1.395 1.186-2.093 2.795-2.093 4.827 0 1.978.704 3.573 2.112 4.786 1.408 1.214 3.332 1.82 5.769 1.82.954 0 1.786-.064 2.496-.193.711-.129 1.314-.327 1.809-.594l2.348 1.628.981-.901-2.273-1.542h-.005Zm14.333 1.286h-10.866V31.335l1.493-.027v11.555h9.382l-.014 1.05.005.004Z" fill="#989898"/><path d="M32.707 41.805c.15-1.066.105-1.223 1.043-1.05l.238.018c.721.028 1.664-.098 2.218-.317 1.192-.468 1.899-1.251.723-1.046-2.682.47-2.866-.301-2.866-.301 2.832-3.562 4.016-8.084 2.994-9.19-2.792-3.019-7.612-1.591-7.697-1.554l-.026.005a11.212 11.212 0 0 0-1.789-.158c-1.214-.017-2.134.27-2.833.719 0 0-8.607-3.006-8.206 3.78.085 1.443 2.441 10.922 5.25 8.06a46.742 46.742 0 0 1 2.02-1.933 2.97 2.97 0 0 0 1.701.368l.048-.035c-.015.13-.009.257.02.408-.724.685-.512.806-1.959 1.058-1.464.256-.604.711-.042.83.68.145 2.256.35 3.32-.913l-.043.144c.284.193.265 1.384.306 2.235.04.852.108 1.646.312 2.114.204.469.446 1.674 2.348 1.33 1.59-.29 2.805-.705 2.916-4.57" fill="#231F20"/><path d="M32.707 41.805c.15-1.066.105-1.223 1.043-1.05l.238.018c.721.028 1.664-.098 2.218-.317 1.192-.468 1.899-1.251.723-1.046-2.682.47-2.866-.301-2.866-.301 2.832-3.562 4.016-8.084 2.994-9.19-2.792-3.019-7.612-1.591-7.697-1.554l-.026.005a11.212 11.212 0 0 0-1.789-.158c-1.214-.017-2.134.27-2.833.719 0 0-8.607-3.006-8.206 3.78.085 1.443 2.441 10.922 5.25 8.06a46.742 46.742 0 0 1 2.02-1.933 2.97 2.97 0 0 0 1.701.368l.048-.035c-.015.13-.009.257.02.408-.724.685-.512.806-1.959 1.058-1.464.256-.604.711-.042.83.68.145 2.256.35 3.32-.913l-.043.144c.284.193.265 1.384.306 2.235.04.852.108 1.646.312 2.114.204.469.446 1.674 2.348 1.33 1.59-.29 2.805-.705 2.916-4.57" stroke="#231F20" stroke-width=".5"/><path d="M36.929 39.41c-2.682.469-2.867-.302-2.867-.302 2.832-3.562 4.016-8.084 2.995-9.19-2.788-3.018-7.612-1.59-7.697-1.553l-.026.004a11.224 11.224 0 0 0-1.79-.157c-1.213-.017-2.134.27-2.833.719 0 0-8.607-3.006-8.206 3.78.085 1.443 2.44 10.923 5.25 8.06a47.275 47.275 0 0 1 2.02-1.933 2.97 2.97 0 0 0 1.701.368l.048-.035c-.015.13-.008.257.02.408-.724.685-.512.805-1.958 1.058-1.464.256-.604.711-.042.83.68.145 2.255.35 3.32-.913l-.043.144c.284.193.483 1.252.45 2.214-.032.962-.055 1.62.168 2.136.224.515.447 1.674 2.35 1.33 1.589-.29 2.413-1.038 2.527-2.286.081-.887.265-.756.277-1.55l.147-.375c.17-1.203.027-1.59 1.006-1.41l.239.018c.72.028 1.664-.098 2.218-.316 1.192-.47 1.899-1.252.723-1.047l.003-.002Z" fill="#5A5A5A"/><path d="M26.983 40.1c-.074 2.237.018 4.492.277 5.04.258.548.812 1.613 2.714 1.267 1.59-.289 2.168-.847 2.418-2.081.18-.908.542-3.43.587-3.946m-8.277-11.5s-8.617-2.984-8.212 3.805c.09 1.444 2.44 10.923 5.251 8.055 1.027-1.047 1.956-1.868 1.956-1.868m5.663-10.537c-.298.08 4.791-1.577 7.683 1.555 1.022 1.107-.162 5.63-2.994 9.191" stroke="#fff" stroke-width=".5" stroke-linecap="round" stroke-linejoin="round"/><path d="M34.044 39.08s.18.77 2.867.302c1.175-.206.468.577-.724 1.046-.979.385-3.172.483-3.208-.048-.092-1.373 1.155-.955 1.065-1.3-.081-.309-.64-.612-1.008-1.37-.322-.662-4.415-5.734 1.134-4.98.204-.037-1.447-4.476-6.642-4.548-5.194-.072-5.021 5.414-5.021 5.414" stroke="#fff" stroke-width=".5" stroke-linecap="round" stroke-linejoin="bevel"/><path d="M25.53 39.55c-.725.686-.512.806-1.959 1.059-1.464.256-.604.71-.042.83.68.144 2.256.349 3.32-.915.324-.384-.002-.999-.447-1.154-.215-.076-.503-.17-.873.18Z" stroke="#fff" stroke-width=".5" stroke-linejoin="round"/><path d="M25.482 39.538c-.073-.403.156-.882.402-1.443.37-.842 1.22-1.684.54-4.355-.508-1.99-3.913-.414-3.915-.144-.001.27.154 1.368-.057 2.646-.275 1.669 1.252 3.08 3.011 2.936" stroke="#fff" stroke-width=".5" stroke-linecap="round" stroke-linejoin="round"/><path d="M24.672 33.555c-.015.092.2.337.479.37.28.034.517-.159.533-.25.016-.092-.199-.194-.479-.227-.28-.034-.518.015-.533.107Zm8.501-.188c.015.093-.199.338-.479.371-.28.033-.518-.16-.534-.252-.015-.093.2-.194.48-.227.279-.033.517.015.532.107v.001Z" fill="#fff" stroke="#fff" stroke-width=".5"/><path d="M34.172 32.73c.046.722-.184 1.214-.213 1.985-.043 1.118.63 2.398-.383 3.68" stroke="#fff" stroke-width=".5" stroke-linecap="round" stroke-linejoin="round"/></svg>