<svg width="166" height="76" fill="none" xmlns="http://www.w3.org/2000/svg"><rect width="166" height="76" rx="15" transform="matrix(1 0 0 -1 0 76)" fill="#000"/><rect x=".5" y="-.5" width="165" height="75" rx="14.5" transform="matrix(1 0 0 -1 0 75)" stroke="#D9D9D9"/><path d="M43.38 42.018a4.055 4.055 0 1 0 0-8.11 4.055 4.055 0 0 0 0 8.11Z" fill="#fff"/><path clip-rule="evenodd" d="M43.38 29.719c5.445 0 10.502.78 14.316 2.093 4.594 1.582 7.419 3.98 7.419 6.15 0 2.263-2.994 4.81-7.928 6.445-3.73 1.236-8.639 1.881-13.806 1.881-5.299 0-10.316-.605-14.088-1.894-4.773-1.632-7.648-4.212-7.648-6.431 0-2.154 2.698-4.533 7.228-6.112 3.827-1.334 9.01-2.132 14.507-2.132Z" stroke="#fff" stroke-width="1.663"/><path clip-rule="evenodd" d="M36.204 33.864c2.72-4.716 5.923-8.706 8.965-11.354 3.666-3.19 7.154-4.44 9.034-3.355 1.96 1.13 2.671 4.996 1.622 10.087-.792 3.849-2.686 8.423-5.268 12.9-2.647 4.59-5.678 8.634-8.679 11.257-3.797 3.32-7.468 4.52-9.39 3.412-1.866-1.075-2.58-4.6-1.684-9.314.756-3.982 2.653-8.87 5.399-13.633Z" stroke="#fff" stroke-width="1.663"/><path clip-rule="evenodd" d="M36.21 42.154c-2.727-4.71-4.584-9.48-5.36-13.438-.932-4.768-.273-8.415 1.606-9.502 1.958-1.134 5.663.181 9.55 3.632 2.938 2.61 5.955 6.534 8.544 11.006 2.655 4.586 4.645 9.232 5.419 13.142.98 4.947.186 8.727-1.734 9.84-1.864 1.078-5.274-.064-8.91-3.193-3.073-2.644-6.36-6.73-9.115-11.487Z" stroke="#fff" stroke-width="1.663"/><path fill-rule="evenodd" clip-rule="evenodd" d="m88.39 48.323-4.97-7.509c2.512-.222 4.775-2.042 4.775-5.367 0-3.383-2.4-5.548-5.769-5.548h-7.397v18.41h2.292v-7.315h3.671l4.692 7.315 2.706.014Zm-6.238-9.33h-4.83v-7.039h4.83c2.181 0 3.671 1.435 3.671 3.506 0 2.071-1.49 3.535-3.671 3.535v-.002Zm14.767 9.66c2.182 0 3.975-.718 5.301-2.042l-.994-1.353c-1.05 1.077-2.595 1.683-4.113 1.683-2.87 0-4.637-2.097-4.803-4.608h10.792v-.525c0-4.002-2.375-7.15-6.405-7.15-3.81 0-6.569 3.12-6.569 6.984 0 4.169 2.844 7 6.79 7l.001.01Zm4.142-7.84h-8.75c.111-2.042 1.517-4.445 4.361-4.445 3.037 0 4.361 2.457 4.389 4.445Zm15.79 7.508v-9.164c0-3.229-2.345-4.5-5.162-4.5-2.181 0-3.892.718-5.327 2.209l.966 1.435c1.187-1.27 2.485-1.85 4.086-1.85 1.932 0 3.368 1.022 3.368 2.816v2.401c-1.077-1.242-2.594-1.822-4.417-1.822-2.263 0-4.666 1.408-4.666 4.389 0 2.898 2.401 4.417 4.666 4.417 1.795 0 3.314-.635 4.417-1.85v1.517l2.069.002Zm-5.74-1.16c-1.932 0-3.286-1.212-3.286-2.897 0-1.712 1.354-2.926 3.286-2.926 1.463 0 2.87.552 3.671 1.657v2.511c-.8 1.104-2.208 1.656-3.671 1.656Zm15.75 1.492c2.429 0 3.864-.994 4.886-2.318l-1.38-1.27c-.884 1.187-2.015 1.739-3.384 1.739-2.843 0-4.608-2.209-4.608-5.162s1.766-5.133 4.608-5.133c1.38 0 2.512.525 3.384 1.738l1.38-1.269c-1.021-1.325-2.457-2.318-4.886-2.318-3.975 0-6.653 3.037-6.653 6.984 0 3.974 2.678 7 6.653 7v.009Zm11.153 0c1.213 0 1.96-.36 2.485-.855l-.607-1.546c-.276.303-.816.552-1.408.552-.91 0-1.353-.718-1.353-1.712v-8.28h2.707V34.99h-2.707v-3.644h-2.071v3.644h-2.208v1.822h2.208v8.724c0 1.987.994 3.12 2.954 3.12v-.003Z" fill="#fff"/></svg>