<svg width="220" height="85" fill="none" xmlns="http://www.w3.org/2000/svg"><g clip-path="url(#a)"><mask id="b" fill="#fff"><path d="M12.223 12.223h195.555V22.61H12.223V12.223Z"/></mask><path d="m5.266 14.668-5.5 5.5H14.36l5.5-5.5H5.266Zm25.054 0-5.5 5.5h14.596l5.5-5.5H30.32Zm25.055 0-5.5 5.5h14.596l5.5-5.5H55.375Zm25.059 0-5.5 5.5h14.595l5.5-5.5H80.434Zm25.054 0-5.5 5.5h14.596l5.5-5.5h-14.596Zm25.055 0-5.5 5.5h14.596l5.5-5.5h-14.596Zm25.055 0-5.5 5.5h14.595l5.5-5.5h-14.595Zm25.056 0-5.5 5.5h14.596l5.5-5.5h-14.596Zm25.055 0-5.5 5.5h14.596l5.5-5.5h-14.596Z" fill="#F3111F"/></g><path d="M12.223 13.445h195.555V11H12.223v2.445Zm195.555 7.944H12.223v2.445h195.555v-2.445Z" fill="#F3111F" mask="url(#b)"/><path d="M12.223 56.46H67.8l24.963-21.385v-5.743h-80.54v27.129Z" fill="#fff"/><path d="M12.223 61.24v4.148h70.114V50.71L70.329 61.24H12.223Zm74.853-17.55v16.592h9.48V43.69h-9.48Zm25.549 7.81h6.297l7.967-23.111h-5.417l-5.597 17.559h-.214l-5.586-17.56h-5.428l7.978 23.112Zm21.932-24.522-4.886 2.821V51.5h4.886V26.978Zm3.772 24.522h17.694l-2.324-4.029h-9.243l11.545-16.182v-2.9h-17.695l2.325 4.028h9.231L138.329 48.6v2.9Zm31.859.316c6.128 0 10.822-4.31 10.822-11.872 0-7.56-4.694-11.871-10.822-11.871-6.161 0-10.822 4.31-10.822 11.871 0 7.527 4.661 11.872 10.822 11.872Zm0-19.421c3.544 0 5.868 2.652 5.868 7.55 0 4.897-2.324 7.549-5.868 7.549-3.554 0-5.868-2.652-5.868-7.55 0-4.897 2.314-7.549 5.868-7.549ZM189.516 51.5v-8.193h3.566l4.379 8.193h5.394l-4.909-8.983c2.629-1.128 4.085-3.419 4.085-6.579 0-4.593-3.036-7.55-8.283-7.55h-9.118V51.5h4.886Zm3.295-19.116c2.822 0 4.187 1.252 4.187 3.554 0 2.291-1.365 3.442-4.164 3.442h-3.318v-6.996h3.295Z" fill="#fff"/><path d="M109.389 57.09h-4.288v9.129h1.465v-3.133h2.783c1.855 0 3.267-1.196 3.267-2.998 0-1.802-1.398-2.998-3.227-2.998Zm-.107 4.652h-2.716v-3.28h2.716c.995 0 1.828.658 1.828 1.653 0 .981-.833 1.627-1.828 1.627Zm8.033 4.678c1.129 0 1.868-.443 2.325-.914l-.013.713h1.465v-6.951h-1.438v.672c-.484-.484-1.331-.874-2.339-.874-2.125 0-3.63 1.654-3.63 3.684 0 2.03 1.505 3.67 3.63 3.67Zm.107-1.29c-1.304 0-2.285-1.076-2.285-2.393 0-1.318.981-2.38 2.285-2.38 1.291 0 2.313.874 2.313 2.38 0 1.519-1.022 2.393-2.313 2.393Zm5.833 1.089h1.452v-3.482c.027-1.48 1.089-2.488 2.851-2.488v-1.196c-1.479 0-2.528.699-2.851 1.546v-1.344h-1.452v6.964Zm10.449 0h1.869l-3.63-4.356 3.092-2.595h-1.882l-2.931 2.447v-4.867l-1.452.242v9.129h1.452V63.3l.645-.55 2.837 3.468Zm3.632-7.946a.818.818 0 0 0 .834-.82.821.821 0 0 0-.834-.834.818.818 0 0 0-.82.834c0 .457.363.82.82.82Zm-.659 7.946h1.452v-6.964h-1.452v6.964Zm7.344-7.166c-1.694 0-2.165 1.075-2.165 1.075v-.86h-1.452v6.95h1.452v-3.912c0-1.304.941-1.962 1.95-1.962.954 0 1.559.631 1.559 1.747v4.128h1.452v-4.276c0-1.909-1.237-2.89-2.796-2.89Zm7.701 10.19c2.877 0 3.966-1.72 3.966-3.75l.027-6.225h-1.452v.672c-.484-.484-1.331-.874-2.339-.874-2.125 0-3.63 1.654-3.63 3.684 0 2.03 1.505 3.67 3.63 3.67 1.115 0 1.855-.43 2.312-.9v.161c0 1.627-.995 2.272-2.568 2.272-1.707 0-2.729-.726-2.729-.726v1.304s.753.713 2.783.713Zm.309-4.113c-1.304 0-2.285-1.076-2.285-2.393 0-1.318.981-2.38 2.285-2.38 1.291 0 2.313.874 2.313 2.38 0 1.519-1.022 2.393-2.313 2.393Zm11.539 1.304c2.071 0 3.429-1.116 3.429-2.622 0-1.6-.914-2.218-2.743-2.971-1.237-.51-1.842-.766-1.842-1.573 0-.672.659-1.035 1.654-1.049.981 0 1.869.377 2.406.874V57.52c-.658-.444-1.425-.712-2.272-.699-1.922 0-3.294 1.008-3.294 2.447 0 1.6.888 2.232 2.689 2.985 1.237.51 1.896.847 1.896 1.546 0 .74-.524 1.25-1.923 1.25a5.115 5.115 0 0 1-3.051-1.062v1.506c.524.457 1.546.94 3.051.94Zm5.54 2.581h1.546l4.692-9.747h-1.519l-2.151 4.611-2.151-4.611h-1.52l2.918 6.144-1.815 3.603Zm8.694-2.595c1.949 0 2.743-1.048 2.743-2.11 0-1.049-.525-1.506-1.452-2.044-1.197-.699-1.573-.847-1.573-1.29 0-.364.322-.619 1.102-.619.699 0 1.318.296 1.627.592v-1.426c-.336-.201-.955-.457-1.802-.457-1.263 0-2.299.753-2.299 1.936 0 1.156.834 1.6 1.748 2.111.82.457 1.291.766 1.291 1.277 0 .457-.471.74-1.398.74-1.13 0-2.044-.793-2.044-.793v1.425s.874.658 2.057.658Zm5.61-.201h1.452v-5.956h2.379V59.08h-2.379v-2.22l-4.128 3.402h2.676v5.956Zm7.981.201c2.03 0 2.783-.712 2.783-.712v-1.304c-.013 0-1.048.726-2.756.726-1.573 0-2.326-.968-2.487-2.044h5.553v-.672c0-1.68-1.17-3.348-3.187-3.348-2.151 0-3.751 1.587-3.751 3.67 0 2.004 1.398 3.684 3.845 3.684Zm-2.393-4.463c.081-.538.592-1.708 2.111-1.708 1.519 0 1.869 1.17 1.923 1.708h-4.034Zm15.135-2.904c-1.318 0-2.044.538-2.367 1.143-.443-.753-1.21-1.143-2.191-1.143-1.398 0-1.869.86-1.949 1.049v-.834h-1.452v6.95h1.452v-4.18c.107-1.13.927-1.694 1.734-1.694.954 0 1.358.631 1.358 1.747v4.128h1.452v-3.913c0-1.304.874-1.962 1.748-1.962.954 0 1.357.631 1.357 1.747v4.128h1.452v-4.276c0-1.909-1.035-2.89-2.594-2.89Z" fill="#989898"/><defs><clipPath id="a"><path d="M12.223 12.223h195.555V22.61H12.223V12.223Z" fill="#fff"/></clipPath></defs></svg>